<?xml version="1.0" encoding="UTF-8"?>
<svg version="1.1" xmlns="http://www.w3.org/2000/svg" width="100" height="100">
<path d="M0 0 C1.64574566 -0.02688151 3.29161413 -0.04634123 4.9375 -0.0625 C5.85402344 -0.07410156 6.77054688 -0.08570313 7.71484375 -0.09765625 C10 0 10 0 11 1 C11.09413687 3.05556661 11.11742998 5.11440181 11.11352539 7.17211914 C11.11367142 7.81600082 11.11381744 8.45988251 11.1139679 9.12327576 C11.11326885 11.26060303 11.10547691 13.39784413 11.09765625 15.53515625 C11.09579204 17.01346285 11.09436815 18.49177007 11.09336853 19.97007751 C11.08954359 23.86798802 11.07971352 27.76586149 11.06866455 31.66375732 C11.05844992 35.63846333 11.0538708 39.61317529 11.04882812 43.58789062 C11.03809122 51.391944 11.02101509 59.19596682 11 67 C11.82463242 66.99777939 12.64926483 66.99555878 13.49888611 66.99327087 C21.25398257 66.97326948 29.00906661 66.95802665 36.76418209 66.94818783 C40.751572 66.94295964 44.73894067 66.93586316 48.72631836 66.92456055 C52.57125114 66.91372939 56.41616345 66.90772268 60.26111031 66.90512276 C61.73118983 66.90326892 63.20126818 66.89964909 64.67133904 66.89426994 C66.72354467 66.88705645 68.77566467 66.88600919 70.82788086 66.88647461 C71.99814316 66.884254 73.16840546 66.88203339 74.37413025 66.87974548 C77 67 77 67 78 68 C78.07205511 69.68608966 78.08386068 71.37500659 78.0625 73.0625 C78.05347656 73.98160156 78.04445313 74.90070313 78.03515625 75.84765625 C78.02355469 76.55792969 78.01195313 77.26820312 78 78 C68.84648097 78.11599585 59.69321604 78.20476642 50.53912163 78.25906086 C46.28818626 78.28512343 42.03775477 78.32045929 37.78710938 78.37719727 C33.6827514 78.43163796 29.57887719 78.46144566 25.47418594 78.47438622 C23.9104768 78.48360463 22.34679331 78.50160663 20.78329086 78.52865028 C18.58786155 78.56510422 16.39441512 78.56993902 14.19873047 78.56762695 C12.95074677 78.57873001 11.70276306 78.58983307 10.41696167 78.60127258 C5.84561599 77.79686648 4.23779561 76.28667891 1 73 C-0.15190466 69.54428603 -0.12007093 66.87950974 -0.11352539 63.23364258 C-0.11367142 62.55045456 -0.11381744 61.86726654 -0.1139679 61.16337585 C-0.11327169 58.90706193 -0.10549296 56.65083074 -0.09765625 54.39453125 C-0.09579103 52.82940211 -0.09436762 51.26427239 -0.09336853 49.69914246 C-0.08955152 45.58096707 -0.07972818 41.46282698 -0.06866455 37.34466553 C-0.05843291 33.14189125 -0.05386715 28.93911127 -0.04882812 24.73632812 C-0.03810519 16.49086922 -0.02103854 8.245439 0 0 Z " fill="#FDFDFD" transform="translate(11,11)"/>
<path d="M0 0 C1.17539996 0.92652701 2.34010577 1.86663387 3.5 2.8125 C4.47453125 3.59560547 4.47453125 3.59560547 5.46875 4.39453125 C7 6 7 6 7 9 C5.04394531 11.34423828 5.04394531 11.34423828 2.328125 14.0703125 C1.84929871 14.55200897 1.37047241 15.03370544 0.87713623 15.52999878 C-0.13811673 16.54729372 -1.15717005 17.56080789 -2.1796875 18.57080078 C-3.74057369 20.11567042 -5.28487603 21.67581558 -6.828125 23.23828125 C-7.81674819 24.22492134 -8.80630195 25.21063006 -9.796875 26.1953125 C-10.69760742 27.09266113 -11.59833984 27.99000977 -12.52636719 28.91455078 C-16.0581101 31.89206242 -16.0581101 31.89206242 -19 32 C-21.375 29.875 -21.375 29.875 -24 27 C-25.03956124 26.08921105 -26.09436949 25.19551587 -27.1640625 24.3203125 C-28.09992187 23.55460937 -29.03578125 22.78890625 -30 22 C-31.91771657 23.74886102 -33.83419683 25.49904501 -35.75 27.25 C-36.28882812 27.74113281 -36.82765625 28.23226562 -37.3828125 28.73828125 C-38.17558594 29.46337891 -38.17558594 29.46337891 -38.984375 30.203125 C-39.50451172 30.67685547 -40.02464844 31.15058594 -40.56054688 31.63867188 C-41.81103069 32.82128683 -42.98412886 34.08469677 -44.140625 35.359375 C-46 37 -46 37 -50 37 C-52.8125 34.1875 -52.8125 34.1875 -55 31 C-53.86808077 27.6042423 -52.45411163 26.67117553 -49.73046875 24.50390625 C-47.85663675 22.87540665 -46.29812961 21.13845383 -44.6875 19.25 C-41.96072123 16.08087712 -39.19027106 12.97095376 -36.3125 9.9375 C-35.58675781 9.16277344 -34.86101563 8.38804688 -34.11328125 7.58984375 C-32 6 -32 6 -30.05859375 5.9375 C-27.06507487 7.482542 -25.07869228 9.64188566 -22.75 12.0625 C-21.85796875 12.98160156 -20.9659375 13.90070312 -20.046875 14.84765625 C-19.37140625 15.55792969 -18.6959375 16.26820312 -18 17 C-11.58930713 11.72898586 -5.81409488 5.90871848 0 0 Z " fill="#EBEBEB" transform="translate(80,25)"/>
<path d="M0 0 C3.3 0 6.6 0 10 0 C11 1 11 1 11.12025452 3.62586975 C11.1169236 5.3812632 11.1169236 5.3812632 11.11352539 7.17211914 C11.11367142 7.81600082 11.11381744 8.45988251 11.1139679 9.12327576 C11.11326885 11.26060303 11.10547691 13.39784413 11.09765625 15.53515625 C11.09579204 17.01346285 11.09436815 18.49177007 11.09336853 19.97007751 C11.08954359 23.86798802 11.07971352 27.76586149 11.06866455 31.66375732 C11.05844992 35.63846333 11.0538708 39.61317529 11.04882812 43.58789062 C11.03809122 51.391944 11.02101509 59.19596682 11 67 C11.82463242 66.99777939 12.64926483 66.99555878 13.49888611 66.99327087 C21.25398257 66.97326948 29.00906661 66.95802665 36.76418209 66.94818783 C40.751572 66.94295964 44.73894067 66.93586316 48.72631836 66.92456055 C52.57125114 66.91372939 56.41616345 66.90772268 60.26111031 66.90512276 C61.73118983 66.90326892 63.20126818 66.89964909 64.67133904 66.89426994 C66.72354467 66.88705645 68.77566467 66.88600919 70.82788086 66.88647461 C71.99814316 66.884254 73.16840546 66.88203339 74.37413025 66.87974548 C77 67 77 67 78 68 C78 71.3 78 74.6 78 78 C54.57 78 31.14 78 7 78 C7.495 77.01 7.495 77.01 8 76 C30.44 76 52.88 76 76 76 C76 73.69 76 71.38 76 69 C75.17536758 69.00222061 74.35073517 69.00444122 73.50111389 69.00672913 C65.74601743 69.02673052 57.99093339 69.04197335 50.23581791 69.05181217 C46.248428 69.05704036 42.26105933 69.06413684 38.27368164 69.07543945 C34.42874886 69.08627061 30.58383655 69.09227732 26.73888969 69.09487724 C25.26881017 69.09673108 23.79873182 69.10035091 22.32866096 69.10573006 C20.27645533 69.11294355 18.22433533 69.11399081 16.17211914 69.11352539 C15.00185684 69.115746 13.83159454 69.11796661 12.62586975 69.12025452 C10 69 10 69 9 68 C8.90586313 65.94443339 8.88257002 63.88559819 8.88647461 61.82788086 C8.88632858 61.18399918 8.88618256 60.54011749 8.8860321 59.87672424 C8.88673115 57.73939697 8.89452309 55.60215587 8.90234375 53.46484375 C8.90420796 51.98653715 8.90563185 50.50822993 8.90663147 49.02992249 C8.91045641 45.13201198 8.92028648 41.23413851 8.93133545 37.33624268 C8.94155008 33.36153667 8.9461292 29.38682471 8.95117188 25.41210938 C8.96190878 17.608056 8.97898491 9.80403318 9 2 C6.69 2 4.38 2 2 2 C2 24.44 2 46.88 2 70 C1.34 70 0.68 70 0 70 C0 46.9 0 23.8 0 0 Z " fill="#787878" transform="translate(11,11)"/>
<path d="M0 0 C3.3 0 6.6 0 10 0 C10 22.44 10 44.88 10 68 C9.67 68 9.34 68 9 68 C9 46.22 9 24.44 9 2 C6.69 2 4.38 2 2 2 C2 24.44 2 46.88 2 70 C1.34 70 0.68 70 0 70 C0 46.9 0 23.8 0 0 Z " fill="#B4B4B4" transform="translate(11,11)"/>
</svg>
