<?xml version="1.0" encoding="UTF-8"?>
<svg version="1.1" xmlns="http://www.w3.org/2000/svg" width="96" height="96">
<path d="M0 0 C0.69641602 -0.00700928 1.39283203 -0.01401855 2.11035156 -0.02124023 C4.40730932 -0.03881383 6.70303021 -0.02720107 9 -0.01367188 C10.59896073 -0.01636701 12.19791987 -0.0202496 13.796875 -0.02526855 C17.14599226 -0.03116269 20.49468243 -0.0226038 23.84375 -0.00390625 C28.13478591 0.01888377 32.42482111 0.00576017 36.71582031 -0.01819611 C40.01700366 -0.03265667 43.31795011 -0.02804703 46.61914062 -0.01768494 C48.20117308 -0.01501834 49.78322711 -0.0182851 51.36523438 -0.02760315 C53.57740163 -0.03777366 55.787953 -0.02226378 58 0 C59.8871875 0.00477356 59.8871875 0.00477356 61.8125 0.00964355 C65 0.51757812 65 0.51757812 67.40713501 2.24913025 C69.25215461 4.87667924 69.49669846 6.14980366 69.48583984 9.33032227 C69.49506973 10.75683861 69.49506973 10.75683861 69.50448608 12.21217346 C69.49011505 13.23205856 69.47574402 14.25194366 69.4609375 15.30273438 C69.46002106 16.35536972 69.45910461 17.40800507 69.4581604 18.49253845 C69.45212261 20.71585606 69.4363714 22.93916547 69.41162109 25.16235352 C69.37509964 28.57077906 69.37060185 31.97811793 69.37109375 35.38671875 C69.36126317 37.54623338 69.34960643 39.70574063 69.3359375 41.86523438 C69.33371185 42.88714371 69.33148621 43.90905304 69.32919312 44.96192932 C69.31643341 45.90978806 69.30367371 46.85764679 69.29052734 47.83422852 C69.27909195 49.0852108 69.27909195 49.0852108 69.26742554 50.36146545 C69 52.51757812 69 52.51757812 67 55.51757812 C70.3 55.84757812 73.6 56.17757812 77 56.51757812 C77 59.15757813 77 61.79757813 77 64.51757812 C45.32 64.51757812 13.64 64.51757812 -19 64.51757812 C-19 61.87757812 -19 59.23757812 -19 56.51757812 C-14.05 56.02257812 -14.05 56.02257812 -9 55.51757812 C-9.66 54.52757812 -10.32 53.53757813 -11 52.51757812 C-11.26742554 50.36146545 -11.26742554 50.36146545 -11.29052734 47.83422852 C-11.30328705 46.88636978 -11.31604675 45.93851105 -11.32919312 44.96192932 C-11.33253159 43.42906532 -11.33253159 43.42906532 -11.3359375 41.86523438 C-11.3425943 40.81355576 -11.3492511 39.76187714 -11.35610962 38.67832947 C-11.36623846 36.4532954 -11.37092657 34.22823093 -11.37060547 32.00317383 C-11.37497871 28.59665978 -11.41129727 25.19144099 -11.44921875 21.78515625 C-11.45508677 19.6243534 -11.45905626 17.46354438 -11.4609375 15.30273438 C-11.47530853 14.28284927 -11.48967957 13.26296417 -11.50448608 12.21217346 C-11.49833282 11.26116257 -11.49217957 10.31015167 -11.48583984 9.33032227 C-11.48868988 8.49553848 -11.49153992 7.6607547 -11.49447632 6.80067444 C-10.13131104 0.506667 -5.70760678 0.01443715 0 0 Z M-3 8.51757812 C-3 21.71757813 -3 34.91757813 -3 48.51757812 C18.12 48.51757812 39.24 48.51757812 61 48.51757812 C61 35.31757812 61 22.11757812 61 8.51757812 C39.88 8.51757812 18.76 8.51757812 -3 8.51757812 Z " fill="#818181" transform="translate(19,15.482421875)"/>
</svg>
