<?xml version="1.0" encoding="UTF-8"?>
<svg version="1.1" xmlns="http://www.w3.org/2000/svg" width="96" height="96">
<path d="M0 0 C26.4 0 52.8 0 80 0 C80 15.13452684 77.30578357 22.57728581 69.44189453 34.51879883 C69.01376465 35.17130615 68.58563477 35.82381348 68.14453125 36.49609375 C67.75628174 37.07544678 67.36803223 37.6547998 66.96801758 38.25170898 C65.74790982 40.27806053 65.74790982 40.27806053 65 44 C62.03 44 59.06 44 56 44 C55.773125 44.86625 55.54625 45.7325 55.3125 46.625 C53.83313724 50.42907566 52.23475074 53.47907515 49 56 C45.9727943 56.86952824 43.13141228 56.84150231 40 56.75 C39.2059375 56.77320313 38.411875 56.79640625 37.59375 56.8203125 C34.37279844 56.78810298 31.96831741 56.75463478 29.37036133 54.72998047 C26.55681863 51.46844733 25.08291037 48.13474867 24 44 C21.03 44 18.06 44 15 44 C14.5359375 42.453125 14.5359375 42.453125 14.0625 40.875 C12.46944725 36.54220436 10.05117885 32.87701772 7.5 29.0625 C0.61448829 18.60197771 0 13.41533268 0 0 Z M9 8 C10.78559482 14.95365789 13.2558133 20.87314903 17 27 C17.33 27 17.66 27 18 27 C17.67 20.73 17.34 14.46 17 8 C14.36 8 11.72 8 9 8 Z M26 8 C25.93689107 18.57505132 25.93689107 18.57505132 27.6875 28.625 C27.86321533 29.34429687 28.03893066 30.06359375 28.2199707 30.8046875 C29.72886906 36.6433825 31.62648239 43.62648239 36 48 C40.08819229 48.60600251 40.08819229 48.60600251 44 48 C47.54663612 43.71889259 49.1566896 39.237242 50.6875 34 C50.89955078 33.31421875 51.11160156 32.6284375 51.33007812 31.921875 C53.85709101 23.56758634 54 17.12140729 54 8 C44.76 8 35.52 8 26 8 Z M63 8 C62.67 14.27 62.34 20.54 62 27 C66.60573658 21.24282928 70.0410783 15.43164317 71 8 C68.36 8 65.72 8 63 8 Z " fill="#828282" transform="translate(8,12)"/>
<path d="M0 0 C13.2 0 26.4 0 40 0 C40 2.64 40 5.28 40 8 C26.8 8 13.6 8 0 8 C0 5.36 0 2.72 0 0 Z " fill="#828282" transform="translate(28,76)"/>
</svg>
