<?xml version="1.0" encoding="UTF-8"?>
<svg version="1.1" xmlns="http://www.w3.org/2000/svg" width="50" height="50">
<path d="M0 0 C1.875 0.25 1.875 0.25 4 1 C5.25 3.0625 5.25 3.0625 6 5 C7.32 4.67 8.64 4.34 10 4 C9.125 8.75 9.125 8.75 8 11 C7.76725791 13.87910588 7.58027243 16.74146495 7.4375 19.625 C7.37272461 20.82769531 7.37272461 20.82769531 7.30664062 22.0546875 C7.20048543 24.0362511 7.09973145 26.01810271 7 28 C6.01 27.67 5.02 27.34 4 27 C4 24.69 4 22.38 4 20 C0.2242742 22.51715054 0.16868336 24.01271916 -1 28.3125 C-2.66917452 34.41194189 -3.8749486 38.47757512 -9.140625 42.25 C-13.89845444 44.74148166 -18.76827742 44.8267033 -24.03515625 45.1328125 C-28.51850897 45.45349993 -28.51850897 45.45349993 -32.015625 48.0625 C-32.50289062 49.0215625 -32.50289062 49.0215625 -33 50 C-34.890625 49.73046875 -34.890625 49.73046875 -37 49 C-38.046875 47.36328125 -38.046875 47.36328125 -38.75 45.3125 C-38.99234375 44.64863281 -39.2346875 43.98476563 -39.484375 43.30078125 C-40 41 -40 41 -40 35 C-34.06 34.505 -34.06 34.505 -28 34 C-29.093125 32.700625 -30.18625 31.40125 -31.3125 30.0625 C-37.5075343 22.02400407 -38.50467751 15.00009133 -38 5 C-35.03165468 6.32354791 -33.07367144 7.74214666 -30.875 10.125 C-29.43247909 11.7349023 -29.43247909 11.7349023 -28 13 C-27.34 13 -26.68 13 -26 13 C-25.67 9.37 -25.34 5.74 -25 2 C-23.68 2 -22.36 2 -21 2 C-15.8300349 7.1699651 -13.32708026 12.81164857 -12 20 C-11.50371094 19.4946875 -11.00742187 18.989375 -10.49609375 18.46875 C-4.88001996 13.09778 -4.88001996 13.09778 -0.0625 12.5625 C1.4534375 12.7790625 1.4534375 12.7790625 3 13 C3.33 13 3.66 13 4 13 C4 12.34 4 11.68 4 11 C1.525 10.505 1.525 10.505 -1 10 C-0.34 8.68 0.32 7.36 1 6 C0.505 5.505 0.505 5.505 0 5 C-0.04063832 3.33382885 -0.042721 1.66611905 0 0 Z M-22 7 C-22.27615058 8.59987236 -22.52007625 10.205333 -22.75 11.8125 C-22.88921875 12.70582031 -23.0284375 13.59914063 -23.171875 14.51953125 C-23.26130578 17.13051005 -23.26130578 17.13051005 -21.203125 18.82421875 C-18.97509562 20.23541589 -18.97509562 20.23541589 -16 20 C-17.14380501 12.54937679 -17.14380501 12.54937679 -22 7 Z M-35 12 C-33.57091585 21.00323014 -29.90273146 27.89373755 -23 34 C-27.79482068 36.75702189 -31.58609132 37.53328373 -37 38 C-36.34 40.31 -35.68 42.62 -35 45 C-34.50113281 44.68804687 -34.00226562 44.37609375 -33.48828125 44.0546875 C-29.54603721 42.38372064 -25.3393152 42.29067967 -21.10742188 41.96484375 C-15.82724295 41.43532723 -12.37151815 40.06169998 -8 37 C-6.47140811 35.03798905 -6.47140811 35.03798905 -5.75 32.8125 C-5.44835937 32.03519531 -5.14671875 31.25789063 -4.8359375 30.45703125 C-3.74049731 27.23725611 -2.67370686 24.01208912 -1.7109375 20.75 C-1 19 -1 19 1 18 C1 17.34 1 16.68 1 16 C-2.88293606 16.23532946 -4.66415405 17.46180129 -7.375 20.0625 C-9.90565835 22.31016 -10.89722852 22.97673099 -14.3125 23.75 C-22.15652226 22.15460564 -28.65864491 16.68708854 -35 12 Z " fill="#838383" transform="translate(40,0)"/>
</svg>
