<?xml version="1.0" encoding="UTF-8"?>
<svg version="1.1" xmlns="http://www.w3.org/2000/svg" width="50" height="50">
<path d="M0 0 C11.22 0 22.44 0 34 0 C34.0918571 5.7665847 34.17148553 11.5306297 34.21972656 17.29736328 C34.23983632 19.25871381 34.26712818 21.22000444 34.30175781 23.18115234 C34.35030421 26.00112695 34.37297486 28.82030865 34.390625 31.640625 C34.41127014 32.51680481 34.43191528 33.39298462 34.45318604 34.29571533 C34.45453841 37.96868108 34.38518104 40.32766997 32.53808594 43.55175781 C28.73707313 45.72063122 25.30837322 45.57269253 21 45.53125 C20.12730469 45.5350769 19.25460938 45.53890381 18.35546875 45.54284668 C16.51300908 45.5455649 14.67051076 45.53820994 12.828125 45.52148438 C10.00954066 45.50007248 7.19350515 45.52128801 4.375 45.546875 C2.58332771 45.54423171 0.79165701 45.53910669 -1 45.53125 C-1.84175781 45.53934692 -2.68351563 45.54744385 -3.55078125 45.55578613 C-7.19195688 45.49749604 -9.39178331 45.37411153 -12.53588867 43.44018555 C-14.52874445 40.11875924 -14.52005195 37.18438159 -14.42578125 33.42578125 C-14.42249313 32.70134323 -14.41920502 31.97690521 -14.41581726 31.23051453 C-14.40542084 29.70493537 -14.38551203 28.17939503 -14.35668945 26.65405273 C-14.31245593 24.31016502 -14.29522998 21.96730107 -14.28320312 19.62304688 C-14.26978528 18.1406101 -14.25486402 16.658186 -14.23828125 15.17578125 C-14.23089432 14.47165604 -14.22350739 13.76753082 -14.21589661 13.04206848 C-14.11832433 8.11832433 -14.11832433 8.11832433 -13 7 C-10.81360547 6.92741054 -8.62499611 6.91626217 -6.4375 6.9375 C-4.64119141 6.95103516 -4.64119141 6.95103516 -2.80859375 6.96484375 C-1.88175781 6.97644531 -0.95492188 6.98804688 0 7 C0 4.69 0 2.38 0 0 Z M2 2 C1.93941406 4.79210938 1.87882812 7.58421875 1.81640625 10.4609375 C1.75463883 13.1582313 1.69124203 15.85548221 1.62768555 18.55273438 C1.58431211 20.43062542 1.54263882 22.30855652 1.50268555 24.18652344 C1.44504124 26.8822844 1.38133019 29.57784327 1.31640625 32.2734375 C1.29969376 33.11619232 1.28298126 33.95894714 1.26576233 34.82723999 C1.11387171 40.77225659 1.11387171 40.77225659 0 43 C4.06243957 43.05819473 8.12477146 43.09366215 12.1875 43.125 C13.33798828 43.14175781 14.48847656 43.15851562 15.67382812 43.17578125 C16.78564453 43.18222656 17.89746094 43.18867187 19.04296875 43.1953125 C20.57473755 43.21102295 20.57473755 43.21102295 22.13745117 43.22705078 C25.2462776 42.98046583 27.29439832 42.56172478 30 41 C32.4711677 36.95268572 32.26152015 32.67875093 32.1953125 28.07421875 C32.19106766 26.95283257 32.19106766 26.95283257 32.18673706 25.80879211 C32.17559469 23.4348612 32.15050162 21.06131575 32.125 18.6875 C32.11496249 17.0722711 32.10583799 15.45703624 32.09765625 13.84179688 C32.07738131 9.89426539 32.03822275 5.94756118 32 2 C22.1 2 12.2 2 2 2 Z M-4 9 C-4 17.91 -4 26.82 -4 36 C-4.66 36 -5.32 36 -6 36 C-5.99476318 35.28344238 -5.98952637 34.56688477 -5.98413086 33.82861328 C-5.96339333 30.59408438 -5.95035016 27.35956944 -5.9375 24.125 C-5.92912109 22.99707031 -5.92074219 21.86914062 -5.91210938 20.70703125 C-5.90888672 19.63066406 -5.90566406 18.55429687 -5.90234375 17.4453125 C-5.89710693 16.45031738 -5.89187012 15.45532227 -5.88647461 14.43017578 C-5.8360585 11.99039227 -5.8360585 11.99039227 -7 10 C-8.32 10 -9.64 10 -11 10 C-13.03790628 14.07581256 -12.18488808 19.33305966 -12.1875 23.8125 C-12.19974609 24.90626953 -12.21199219 26.00003906 -12.22460938 27.12695312 C-12.22654297 28.18462891 -12.22847656 29.24230469 -12.23046875 30.33203125 C-12.23457764 31.29858643 -12.23868652 32.2651416 -12.24291992 33.26098633 C-11.95989631 36.45218417 -11.34184419 39.65815581 -9 42 C-6.66055264 41.71269945 -4.3260857 41.38063221 -2 41 C-0.14274249 37.05091786 0.23651489 33.95232103 0.1953125 29.60546875 C0.18886719 28.40341797 0.18242187 27.20136719 0.17578125 25.96289062 C0.15902344 24.71701172 0.14226563 23.47113281 0.125 22.1875 C0.11597656 20.92228516 0.10695313 19.65707031 0.09765625 18.35351562 C0.07412394 15.23548436 0.04124545 12.11783903 0 9 C-1.32 9 -2.64 9 -4 9 Z " fill="#828282" transform="translate(15,3)"/>
<path d="M0 0 C7.92 0 15.84 0 24 0 C24 3.63 24 7.26 24 11 C16.08 11 8.16 11 0 11 C0 7.37 0 3.74 0 0 Z " fill="#828282" transform="translate(20,13)"/>
<path d="M0 0 C7.92 0 15.84 0 24 0 C24 0.66 24 1.32 24 2 C16.08 2 8.16 2 0 2 C0 1.34 0 0.68 0 0 Z " fill="#818181" transform="translate(20,8)"/>
<path d="M0 0 C2.97 0 5.94 0 9 0 C9 0.66 9 1.32 9 2 C6.03 2 3.06 2 0 2 C0 1.34 0 0.68 0 0 Z " fill="#818181" transform="translate(34,39)"/>
<path d="M0 0 C2.97 0 5.94 0 9 0 C9 0.66 9 1.32 9 2 C6.03 2 3.06 2 0 2 C0 1.34 0 0.68 0 0 Z " fill="#818181" transform="translate(21,39)"/>
<path d="M0 0 C2.97 0 5.94 0 9 0 C9 0.66 9 1.32 9 2 C6.03 2 3.06 2 0 2 C0 1.34 0 0.68 0 0 Z " fill="#818181" transform="translate(34,35)"/>
<path d="M0 0 C2.97 0 5.94 0 9 0 C9 0.66 9 1.32 9 2 C6.03 2 3.06 2 0 2 C0 1.34 0 0.68 0 0 Z " fill="#818181" transform="translate(21,35)"/>
<path d="M0 0 C2.97 0 5.94 0 9 0 C9 0.66 9 1.32 9 2 C6.03 2 3.06 2 0 2 C0 1.34 0 0.68 0 0 Z " fill="#818181" transform="translate(34,31)"/>
<path d="M0 0 C2.97 0 5.94 0 9 0 C9 0.66 9 1.32 9 2 C6.03 2 3.06 2 0 2 C0 1.34 0 0.68 0 0 Z " fill="#818181" transform="translate(21,31)"/>
<path d="M0 0 C2.97 0 5.94 0 9 0 C9 0.66 9 1.32 9 2 C6.03 2 3.06 2 0 2 C0 1.34 0 0.68 0 0 Z " fill="#818181" transform="translate(34,27)"/>
<path d="M0 0 C2.97 0 5.94 0 9 0 C9 0.66 9 1.32 9 2 C6.03 2 3.06 2 0 2 C0 1.34 0 0.68 0 0 Z " fill="#818181" transform="translate(21,27)"/>
</svg>
