<?xml version="1.0" encoding="UTF-8"?>
<svg version="1.1" xmlns="http://www.w3.org/2000/svg" width="96" height="96">
<path d="M0 0 C11.88 0 23.76 0 36 0 C37 4 37 4 36 6 C34.68 6 33.36 6 32 6 C32.08148343 9.68836336 32.19427268 13.37514597 32.3125 17.0625 C32.34633789 18.62000977 32.34633789 18.62000977 32.38085938 20.20898438 C32.77068778 31.37225234 37.22645031 38.15083653 43.5 47.125 C44.84494188 49.06427811 46.18873251 51.00435526 47.53125 52.9453125 C48.12486328 53.79625488 48.71847656 54.64719727 49.33007812 55.52392578 C54.43703646 63.09626079 54.43703646 63.09626079 54.5 67 C54.5309375 67.639375 54.561875 68.27875 54.59375 68.9375 C53.61366157 72.34201772 52.04294668 74.30414248 49 76 C44.38322568 76.77553086 39.79715511 76.70003134 35.125 76.6640625 C33.75406464 76.66743364 32.3831322 76.67228875 31.01220703 76.67855835 C28.14391526 76.68591594 25.27640391 76.6752621 22.40820312 76.65185547 C18.73916507 76.62336599 15.07195564 76.63977628 11.40298462 76.66971779 C8.57350998 76.68782233 5.74446594 76.68201881 2.91497803 76.66907883 C0.90701097 76.66414122 -1.1009731 76.67927464 -3.10888672 76.69473267 C-13.22786161 76.56451793 -13.22786161 76.56451793 -16.31469727 73.58129883 C-18.47939138 70.2657388 -19.0266846 68.6041196 -18.80078125 64.69921875 C-17.12628202 59.05493111 -13.00445707 54.52329269 -9.45068359 49.921875 C-6.98700297 46.65797499 -4.71047934 43.27321664 -2.4375 39.875 C-2.00840332 39.24770996 -1.57930664 38.62041992 -1.13720703 37.97412109 C2.20627502 32.98941661 3.08613202 29.49946228 3.31640625 23.578125 C3.35830078 22.55332031 3.40019531 21.52851563 3.44335938 20.47265625 C3.48267578 19.40917969 3.52199219 18.34570312 3.5625 17.25 C3.60568359 16.17105469 3.64886719 15.09210937 3.69335938 13.98046875 C3.79928989 11.32043572 3.90136421 8.66031188 4 6 C2.68 6 1.36 6 0 6 C-1.125 2.25 -1.125 2.25 0 0 Z M10 6 C10 11.28 10 16.56 10 22 C15.28 22 20.56 22 26 22 C26 16.72 26 11.44 26 6 C20.72 6 15.44 6 10 6 Z M10 28 C9.87625 29.175625 9.7525 30.35125 9.625 31.5625 C7.75594178 40.0064013 1.59621557 46.97884425 -3.34814453 53.88232422 C-4.20750365 55.08261256 -5.06413814 56.28485741 -5.91772461 57.48925781 C-7.06167784 59.0984264 -8.22179539 60.69606806 -9.3828125 62.29296875 C-11.3419035 65.04676639 -11.3419035 65.04676639 -11 69 C-8.01520374 69.99493209 -6.04931881 70.12666471 -2.93359375 70.12939453 C-1.3868396 70.13412277 -1.3868396 70.13412277 0.19116211 70.13894653 C1.30370361 70.1369223 2.41624512 70.13489807 3.5625 70.1328125 C5.27675171 70.13424759 5.27675171 70.13424759 7.02563477 70.13571167 C9.44319717 70.13639252 11.86076141 70.13454483 14.27832031 70.13037109 C17.98506769 70.12502155 21.6916939 70.13031933 25.3984375 70.13671875 C27.74479193 70.13605795 30.09114629 70.13477675 32.4375 70.1328125 C33.5500415 70.13483673 34.66258301 70.13686096 35.80883789 70.13894653 C36.84000732 70.13579437 37.87117676 70.13264221 38.93359375 70.12939453 C39.84165771 70.12859894 40.74972168 70.12780334 41.68530273 70.12698364 C44.15971887 70.0933085 44.15971887 70.0933085 47 69 C46.43957385 64.74690288 45.00070793 62.12777758 42.5625 58.625 C41.49322266 57.05685547 41.49322266 57.05685547 40.40234375 55.45703125 C39.16880543 53.67399361 37.92738362 51.89722277 36.67626953 50.12646484 C26.86550582 36.22230529 26.86550582 36.22230529 26 28 C20.72 28 15.44 28 10 28 Z " fill="#FFFFFF" transform="translate(30,10)"/>
<path d="M0 0 C3 0.25 3 0.25 5 2.25 C5.25 5.25 5.25 5.25 5 8.25 C3 10.25 3 10.25 0 10.5 C-3 10.25 -3 10.25 -5 8.25 C-5.25 5.25 -5.25 5.25 -5 2.25 C-3 0.25 -3 0.25 0 0 Z " fill="#FFFFFF" transform="translate(59,63.75)"/>
<path d="M0 0 C3 0.125 3 0.125 4 1.125 C4.125 4.125 4.125 4.125 4 7.125 C3 8.125 3 8.125 0 8.25 C-3 8.125 -3 8.125 -4 7.125 C-4.125 4.125 -4.125 4.125 -4 1.125 C-3 0.125 -3 0.125 0 0 Z " fill="#FFFFFF" transform="translate(42,51.875)"/>
</svg>
